<svg xmlns="http://www.w3.org/2000/svg" viewBox="-32 -32 1088 1088" width="64" height="64" fill="#0a0a0a"><g transform="translate(0, 960) scale(1, -1)"><path d="M9.557 938.667h676.295v-459.207h-676.295zM617.586 870.4h-539.762v-322.674h539.762zM52.793 547.727h589.369v-633.060h-589.369zM573.895 479.46h-452.836v-496.526h452.836zM695.41-85.333h-695.41v68.267h695.41zM347.705 44.829c-71.101 0.078-128.719 57.695-128.796 128.789v0.008c0 92.479 93.935 189.099 104.676 199.794l24.121 24.121 24.121-24.121c10.695-10.695 104.676-107.315 104.676-199.794-0.078-71.101-57.695-128.719-128.789-128.796h-0.008zM347.705 298.007c-31.027-33.342-52.633-75.84-60.345-123.010l-0.185-1.372c0-33.43 27.1-60.53 60.53-60.53s60.53 27.1 60.53 60.53v0c-7.897 48.542-29.502 91.040-60.663 124.527l0.133-0.145zM251.676 643.755h-68.267v130.617h68.267zM381.838 643.755h-68.267v130.617h68.267zM512 643.755h-68.267v130.617h68.267zM912.68-42.097c0 0 0 0 0 0-66.896 0-121.138 54.178-121.241 121.049v347.715c-0.332 29.086-23.874 52.564-52.953 52.793h-130.002v68.267h130.162c66.653-0.511 120.548-54.407 121.059-121.011v-347.754c0.026-29.146 23.647-52.767 52.79-52.793h0.003c29.086 0.332 52.564 23.874 52.793 52.953v594.17l-163.84 163.84 48.242 48.287 183.865-183.865v-622.592c-0.51-66.589-54.303-120.446-120.819-121.059h-0.058zM999.242 566.386c-66.521 0.587-120.291 54.356-120.877 120.822v0.056c0 0.097 0 0.211 0 0.326 0 33.307 13.574 63.444 35.491 85.182l0.008 0.008 47.832-48.697c-9.4-9.282-15.228-22.163-15.246-36.405v-0.003c0.231-29.237 23.909-52.867 53.142-53.020h0.015z"/></g></svg>