<svg xmlns="http://www.w3.org/2000/svg" viewBox="-32 -32 1088 1088" width="64" height="64" fill="#0a0a0a"><g transform="translate(0, 960) scale(1, -1)"><path d="M728.509 5.135l-28.538 60.371c39.373 18.91 66.072 58.472 66.072 104.27 0 63.685-51.627 115.311-115.311 115.311-0.048 0-0.095 0-0.143 0h-65.173l6.945 39.224c2.166 11.645 3.442 25.081 3.517 38.802v0.066c0 99.092-80.33 179.423-179.423 179.423s-179.423-80.33-179.423-179.423v0-33.347h-33.391c-75.633-0.133-136.894-61.476-136.894-137.127 0-50.322 27.106-94.312 67.513-118.168l0.639-0.349-33.614-57.878c-61.015 35.998-101.305 101.401-101.305 176.214 0 101.4 74.014 185.513 170.965 201.262l1.174 0.157c15.761 122.15 119.117 215.563 244.291 215.563 135.975 0 246.205-110.23 246.205-246.205 0-0.090 0-0.18 0-0.27v0.014q0-5.743-0.267-11.487c95.467-6.259 170.531-85.227 170.531-181.726 0-72.317-42.157-134.788-103.236-164.179l-1.092-0.473zM361.249-77.987l-59.748 29.83 106.407 212.814 59.748-29.83zM531.322-77.987l-59.748 29.83 106.407 212.814 59.748-29.83zM190.731-78.031l-59.748 29.919 107.297 214.15 59.748-29.919zM719.471 282.862l-36.374 56.097c50.003 32.502 82.606 88.095 82.606 151.303 0 99.338-80.53 179.868-179.868 179.868-73.815 0-137.245-44.465-164.967-108.070l-0.45-1.16-61.44 26.268c38.705 88.64 125.598 149.466 226.697 149.466 136.221 0 246.65-110.429 246.65-246.65 0-86.444-44.47-162.501-111.78-206.544l-0.942-0.578zM619.876 831.37h-66.783v85.037h66.783zM1012.558 456.942h-85.037v66.783h85.037zM851.389 708.044l-47.193 47.193 60.104 60.104 47.193-47.193zM322.026 708.044l-60.104 60.104 47.193 47.193 60.104-60.104z"/></g></svg>