<svg xmlns="http://www.w3.org/2000/svg" viewBox="-32 -32 1088 1088" width="64" height="64" fill="#0a0a0a"><g transform="translate(0, 960) scale(1, -1)"><path d="M494.252 267.832h-494.252v67.398h494.252c40.697 0 73.688 32.991 73.688 73.688s-32.991 73.688-73.688 73.688c-40.697 0-73.688-32.991-73.688-73.688v0h-67.398c0 77.92 63.167 141.086 141.086 141.086s141.086-63.167 141.086-141.086c0-77.92-63.167-141.086-141.086-141.086v0zM386.864-75.897c-65.978 0.077-119.442 53.541-119.519 119.512v0.007h67.398c0-28.786 23.335-52.121 52.121-52.121s52.121 23.335 52.121 52.121c0 28.786-23.335 52.121-52.121 52.121v0h-386.864v67.398h386.864c66.009 0 119.519-53.511 119.519-119.519s-53.511-119.519-119.519-119.519v0zM1022.203 408.919h-67.398c-0.102 88.053-71.455 159.406-159.499 159.509h-65.656l6.83 39.45c2.135 11.707 3.421 25.247 3.549 39.064l0.001 0.117c0 123.828-100.383 224.211-224.211 224.211s-224.211-100.383-224.211-224.211v0-33.699h-33.699c-0.001 0-0.001 0-0.002 0-100.005 0-181.076-81.070-181.076-181.076 0-0.316 0.001-0.632 0.002-0.947v0.049h-67.398c-0.001 0.237-0.001 0.518-0.001 0.799 0 125.932 93.718 229.974 215.213 246.188l1.27 0.139c16.435 146.918 139.951 260.099 289.901 260.099 161.031 0 291.576-130.525 291.609-291.548v-0.273q0-5.616-0.315-11.278c120.065-6.594 214.945-105.49 215.089-226.578v-0.014zM1022.203 86.757h-67.398v171.64h67.398zM1022.203-85.333h-67.398v85.82h67.398zM850.113 172.577h-67.398v172.090h67.398zM850.113 0.487h-67.398v86.269h67.398zM678.473 86.757h-67.398v171.64h67.398zM678.473-85.333h-67.398v85.82h67.398z"/></g></svg>